<?xml version="1.0" standalone="no"?><!DOCTYPE svg PUBLIC "-//W3C//DTD SVG 1.1//EN" "http://www.w3.org/Graphics/SVG/1.1/DTD/svg11.dtd"><svg t="1762929715164" class="icon" viewBox="0 0 1026 1024" version="1.1" xmlns="http://www.w3.org/2000/svg" p-id="12146" xmlns:xlink="http://www.w3.org/1999/xlink" width="200.390625" height="200"><path d="M728.293878 909.061224H301.453061c-43.885714 0-79.412245-35.526531-79.412245-79.412244V194.35102c0-43.885714 35.526531-79.412245 79.412245-79.412244h426.840817c43.885714 0 79.412245 35.526531 79.412244 79.412244v635.29796c0 43.885714-36.04898 79.412245-79.412244 79.412244z" fill="#F2CB51" p-id="12147"></path><path d="M539.689796 466.02449l-109.714286-59.559184-108.669388 59.559184V114.938776h218.383674v351.085714z" fill="#E5404F" p-id="12148"></path><path d="M688.587755 748.146939H341.159184c-10.971429 0-19.853061-8.881633-19.853062-19.853061 0-10.971429 8.881633-19.853061 19.853062-19.853062h347.428571c10.971429 0 19.853061 8.881633 19.853061 19.853062 0 10.971429-9.404082 19.853061-19.853061 19.853061zM514.612245 645.746939H341.159184c-10.971429 0-19.853061-8.881633-19.853062-19.853061s8.881633-19.853061 19.853062-19.853062h173.97551c10.971429 0 19.853061 8.881633 19.853061 19.853062s-9.404082 19.853061-20.37551 19.853061z" fill="#AF8015" p-id="12149"></path></svg>