<?xml version="1.0" standalone="no"?><!DOCTYPE svg PUBLIC "-//W3C//DTD SVG 1.1//EN" "http://www.w3.org/Graphics/SVG/1.1/DTD/svg11.dtd"><svg t="1762929682635" class="icon" viewBox="0 0 1024 1024" version="1.1" xmlns="http://www.w3.org/2000/svg" p-id="10247" xmlns:xlink="http://www.w3.org/1999/xlink" width="200" height="200"><path d="M157.024 215.104c11.84-14.784 23.744-28.608 35.616-41.376 9.28-11.456 18.976-22.24 29.184-32.288 10.24-10.08 17.984-17.472 23.264-22.176 7.264-6.08 15.04-11.488 23.2-16.16C276.544 98.336 287.616 96 301.408 96h427.2c8.576 0 18.464 1.824 29.632 5.568 11.2 3.648 22.144 11.2 32.64 22.688 5.28 6.72 12.16 15.136 20.8 25.216 8.512 10.08 16.768 19.84 24.64 29.28 9.28 11.488 18.464 23.584 27.68 36.352H157.024zM960 516.864c0 21.536-6.912 39.68-20.8 54.528-13.792 14.784-33.6 22.176-59.36 22.176H149.12c-25.056 0-44.992-7.36-59.84-22.176a74.176 74.176 0 0 1-22.208-54.496v-144.32c0-21.504 6.624-40 19.776-55.488 13.12-15.552 34.56-23.296 64.256-23.296h727.808c30.336 0 51.392 7.744 63.264 23.232 11.968 15.52 17.856 33.984 17.856 55.552v144.32z m-372.832-72.64c0-8.736-2.144-14.976-6.4-18.688-4.288-3.744-10.144-5.504-17.376-5.504h-99.84a23.872 23.872 0 0 0-24.672 24.192c0.64 8.768 3.072 15.104 7.392 19.136 4.288 4 10.08 6.016 17.28 6.016h99.904c15.168 0.064 23.072-8.384 23.68-25.152z m369.856 437.952c0 21.568-8.096 40-24.256 55.552-16.128 15.456-36.736 22.88-61.856 22.24H146.112c-21.056 0-40.032-7.616-56.896-22.72C72.352 922.24 64 901.12 64 874.176v-135.136c0-22.24 6.72-40.96 20.288-56.064 13.536-15.2 35.104-22.72 64.736-22.72h725.888c27.616 0 48.256 7.584 61.76 22.72 13.568 15.136 20.288 33.472 20.288 54.976v144.256h0.064z m-372.8-71.584a24.64 24.64 0 0 0-6.4-17.184c-4.256-4.704-10.048-7.04-17.344-7.04h-99.872a23.872 23.872 0 0 0-24.768 24.224 23.872 23.872 0 0 0 24.768 24.192h99.84a22.368 22.368 0 0 0 17.376-7.04 24.352 24.352 0 0 0 6.4-17.152z" fill="#FF8848" p-id="10248"></path></svg>