<?xml version="1.0" standalone="no"?><!DOCTYPE svg PUBLIC "-//W3C//DTD SVG 1.1//EN" "http://www.w3.org/Graphics/SVG/1.1/DTD/svg11.dtd"><svg t="1762931114536" class="icon" viewBox="0 0 1024 1024" version="1.1" xmlns="http://www.w3.org/2000/svg" p-id="17326" xmlns:xlink="http://www.w3.org/1999/xlink" width="200" height="200"><path d="M276.659649 792.774194a23.180532 23.180532 0 0 1-18.080815-37.552462l251.624675-316.877872a23.180532 23.180532 0 0 1 30.94601-4.867912L761.944086 579.513299l181.735371-256.028975a23.180532 23.180532 0 1 1 37.784267 26.773514l-194.716469 274.341596a23.180532 23.180532 0 0 1-31.641426 5.911036L533.268138 483.777702 295.204075 783.965591a23.180532 23.180532 0 0 1-18.544426 8.808603z" fill="#3A77D9" p-id="17327"></path><path d="M962.57159 329.163554m-55.980984 0a55.980985 55.980985 0 1 0 111.961969 0 55.980985 55.980985 0 1 0-111.961969 0Z" fill="#3A77D9" p-id="17328"></path><path d="M764.030334 604.316469m-55.980985 0a55.980985 55.980985 0 1 0 111.96197 0 55.980985 55.980985 0 1 0-111.96197 0Z" fill="#3A77D9" p-id="17329"></path><path d="M530.834182 461.060781m-55.980984 0a55.980985 55.980985 0 1 0 111.961969 0 55.980985 55.980985 0 1 0-111.961969 0Z" fill="#3A77D9" p-id="17330"></path><path d="M276.659649 778.286361m-55.980985 0a55.980985 55.980985 0 1 0 111.96197 0 55.980985 55.980985 0 1 0-111.96197 0Z" fill="#3A77D9" p-id="17331"></path><path d="M517.389474 1024a511.942049 511.942049 0 1 1 392.794114-840.526089A23.180532 23.180532 0 0 1 874.717374 213.260894a465.580985 465.580985 0 1 0 28.975665 558.998529 23.180532 23.180532 0 0 1 38.36378 25.962196 511.710243 511.710243 0 0 1-424.667345 225.778381z" fill="#3A77D9" p-id="17332"></path></svg>