<?xml version="1.0" standalone="no"?><!DOCTYPE svg PUBLIC "-//W3C//DTD SVG 1.1//EN" "http://www.w3.org/Graphics/SVG/1.1/DTD/svg11.dtd"><svg t="1762843475493" class="icon" viewBox="0 0 1213 1024" version="1.1" xmlns="http://www.w3.org/2000/svg" p-id="6548" xmlns:xlink="http://www.w3.org/1999/xlink" width="236.9140625" height="200"><path d="M1004.046124 568.908272l-379.622349 358.119266a54.421386 54.421386 0 0 0 0.26547 80.399538c23.778543 22.185722 62.195869 22.071949 85.822715-0.227546l470.3373-443.67651A56.886466 56.886466 0 0 0 1213.57794 510.580683a54.876477 54.876477 0 0 0-17.634804-41.489196L716.466076 16.844083A63.561145 63.561145 0 0 0 630.681286 16.578612a54.421386 54.421386 0 0 0-0.26547 80.437463L1010.038165 455.135341H56.886466a56.886466 56.886466 0 0 0 0 113.772931h947.159658z" fill="#cdcdcd" p-id="6549"></path></svg>