<?xml version="1.0" standalone="no"?><!DOCTYPE svg PUBLIC "-//W3C//DTD SVG 1.1//EN" "http://www.w3.org/Graphics/SVG/1.1/DTD/svg11.dtd"><svg t="1762850728379" class="icon" viewBox="0 0 1024 1024" version="1.1" xmlns="http://www.w3.org/2000/svg" p-id="17686" xmlns:xlink="http://www.w3.org/1999/xlink" width="200" height="200"><path d="M144.976773 1024H25.74422C11.52278 1024 0.031856 1006.479186 0.031856 984.862597V551.165561C0.031856 529.548973 11.52278 512.028158 25.74422 512.028158h119.232553c14.22144 0 25.712364 17.520814 25.712364 39.137403v433.583264c0 21.73036-11.490924 39.251175-25.712364 39.251175z m284.428801 0H310.173021c-14.22144 0-25.712364-17.1795-25.712364-38.341002v-264.632557c0-21.161503 11.490924-38.341002 25.712364-38.341002h119.232553c14.22144 0 25.712364 17.1795 25.712364 38.341002v264.518785c0 21.275274-11.490924 38.454774-25.712364 38.454774z m284.428801 0h-119.232553c-14.22144 0-25.712364-17.1795-25.712364-38.341002v-264.632557c0-21.161503 11.490924-38.341002 25.712364-38.341002h119.232553c14.22144 0 25.712364 17.1795 25.712363 38.341002v264.518785c0 21.275274-11.490924 38.454774-25.712363 38.454774z m284.371915 0h-119.175668c-14.22144 0-25.712364-18.487872-25.712363-41.242176V325.727294c0-22.754304 11.490924-41.242176 25.712363-41.242176h119.232554c14.22144 0 25.712364 18.487872 25.712363 41.242176v657.03053c-0.056886 22.754304-11.604695 41.242176-25.769249 41.242176z" fill="#103A7F" p-id="17687"></path><path d="M979.490875 8.190981a39.194289 39.194289 0 0 1 14.790298 25.939906l19.796244 154.786154a39.137403 39.137403 0 0 1-33.790141 43.802035l-5.005947 0.170657a38.966746 38.966746 0 0 1-38.682317-34.07457l-7.793349-60.697106-393.649461 384.547739a39.137403 39.137403 0 0 1-48.580439 4.949061l-304.737017-197.962446-117.924181 97.388422a39.023631 39.023631 0 1 1-49.661269-60.298906l140.109628-115.64875c13.140611-10.808294 31.856026-11.94601 46.134351-2.616745l302.575358 196.369644 363.556894-355.02403-57.625275 7.395149a39.137403 39.137403 0 0 1-43.802036-33.847027 38.966746 38.966746 0 0 1 33.790142-43.574492l151.543665-19.398045a39.251175 39.251175 0 0 1 28.954852 7.79335z" fill="#FF6603" p-id="17688"></path></svg>