<?xml version="1.0" standalone="no"?><!DOCTYPE svg PUBLIC "-//W3C//DTD SVG 1.1//EN" "http://www.w3.org/Graphics/SVG/1.1/DTD/svg11.dtd"><svg t="1762848961960" class="icon" viewBox="0 0 1024 1024" version="1.1" xmlns="http://www.w3.org/2000/svg" p-id="11197" xmlns:xlink="http://www.w3.org/1999/xlink" width="200" height="200"><path d="M512 960.2c-246 0-447.35-201.73-447.35-448.28S265.94 63.63 512 63.63s447.33 201.73 447.33 448.29S758 960.2 512 960.2z m144.3-104.38A377.09 377.09 0 0 0 855 656.7a371.79 371.79 0 0 0 0-289.57A377.09 377.09 0 0 0 656.3 168a369.15 369.15 0 0 0-288.64 0A377.18 377.18 0 0 0 169 367.13a371.79 371.79 0 0 0 0 289.57 377.18 377.18 0 0 0 198.66 199.12 369.15 369.15 0 0 0 288.64 0z" fill="#1296db" p-id="11198"></path><path d="M378.19 349.54h265.46a30.66 30.66 0 0 1 30.63 30.69v266a30.66 30.66 0 0 1-30.63 30.69H378.19a30.66 30.66 0 0 1-30.63-30.69v-266a30.66 30.66 0 0 1 30.63-30.69z" fill="#1296db" p-id="11199"></path></svg>