<?xml version="1.0" standalone="no"?><!DOCTYPE svg PUBLIC "-//W3C//DTD SVG 1.1//EN" "http://www.w3.org/Graphics/SVG/1.1/DTD/svg11.dtd"><svg t="1762924276507" class="icon" viewBox="0 0 1024 1024" version="1.1" xmlns="http://www.w3.org/2000/svg" p-id="7383" xmlns:xlink="http://www.w3.org/1999/xlink" width="200" height="200"><path d="M1016.019621 518.373444l-50.987552-369.659751c-12.746888-93.477178-76.481328-127.46888-110.473029-140.215768-4.248963-4.248963-12.746888-8.497925-16.99585-8.497925H336.185596h-4.248962-4.248963C297.944933 12.746888 225.712567 42.489627 221.463605 131.717842V594.854772h-169.958506V106.224066h89.228215c12.746888 0 25.493776-12.746888 25.493776-25.493776s-12.746888-25.493776-25.493776-25.493775H51.505099c-12.746888 0-25.493776 12.746888-25.493776 25.493775-12.746888 0-25.493776 12.746888-25.493776 25.493776v492.879668c0 12.746888 12.746888 25.493776 25.493776 25.493776 0 12.746888 12.746888 25.493776 25.493776 25.493776h165.709543c12.746888 0 25.493776-12.746888 25.493776-25.493776 12.746888 0 25.493776-8.497925 25.493776-21.244813v8.497925c144.46473 55.236515 165.709544 174.207469 165.709544 174.207469v212.448133c0 12.746888 12.746888 25.493776 25.493775 25.493776H552.882692c4.248963 0 8.497925 0 12.746888-4.248963v4.248963c89.228216-46.738589 89.228216-118.970954 89.228216-118.970954v-212.448133h229.443983c4.248963 0 8.497925 0 12.746888-4.248963 152.962656-33.991701 118.970954-169.958506 118.970954-169.958506z m-127.468879 118.970954h-242.190872c-12.746888 0-21.244813 8.497925-25.493776 16.995851-8.497925 4.248963-12.746888 12.746888-12.746888 21.244813v225.195021c0 29.742739-50.987552 67.983402-50.987551 67.983402h-63.73444v-199.701244c-21.244813-157.211618-212.448133-220.946058-216.697096-225.195021V131.717842c0-8.497925 12.746888-63.73444 76.481328-76.481327h475.883818c84.979253 29.742739 89.228216 106.224066 89.228215 106.224066l50.987552 382.406639c4.248963 63.73444-80.73029 93.477178-80.73029 93.477178z" fill="#bfbfbf" p-id="7384"></path></svg>