<?xml version="1.0" standalone="no"?><!DOCTYPE svg PUBLIC "-//W3C//DTD SVG 1.1//EN" "http://www.w3.org/Graphics/SVG/1.1/DTD/svg11.dtd"><svg t="1762924330128" class="icon" viewBox="0 0 1236 1024" version="1.1" xmlns="http://www.w3.org/2000/svg" p-id="8829" xmlns:xlink="http://www.w3.org/1999/xlink" width="241.40625" height="200"><path d="M741.743 1018.343c-28.287 0-50.917-11.315-73.547-28.288-22.63-22.63-39.602-50.917-39.602-84.862V792.044c-124.464 0-328.133 33.945-435.624 181.039-16.973 28.287-56.575 45.26-90.52 50.917H85.478C28.903 1012.685-5.042 961.768 0.616 905.193c28.287-243.27 113.15-418.652 260.243-537.458 107.492-84.862 231.956-130.122 367.735-141.437V118.807c0-50.917 22.63-96.177 67.89-113.15C736.086-5.657 781.345 0 815.29 33.945l362.077 367.735c28.288 22.63 45.26 56.574 50.918 96.176 5.657 39.603-5.658 79.205-33.945 107.492-5.658 5.658-11.315 16.972-22.63 22.63l-350.762 356.42c-22.63 22.63-50.918 33.945-79.205 33.945z m-90.52-339.448h90.52v226.298l356.42-367.734 5.658-5.658c5.657-5.657 5.657-16.972 5.657-22.63 0-11.315-5.657-16.972-11.315-22.63l-5.657-5.657-356.42-362.077V333.79l-79.205 5.658c-118.806 0-231.956 39.602-328.132 113.149-113.15 90.519-186.696 237.613-209.326 429.967 141.436-175.382 390.364-203.669 531.8-203.669z" p-id="8830" fill="#bfbfbf"></path></svg>