<?xml version="1.0" standalone="no"?><!DOCTYPE svg PUBLIC "-//W3C//DTD SVG 1.1//EN" "http://www.w3.org/Graphics/SVG/1.1/DTD/svg11.dtd"><svg t="1762924515887" class="icon" viewBox="0 0 1024 1024" version="1.1" xmlns="http://www.w3.org/2000/svg" p-id="13149" xmlns:xlink="http://www.w3.org/1999/xlink" width="200" height="200"><path d="M153.6 18.2784h530.2784l201.1648 219.4432v768H153.6V18.2784z" fill="#FFFFFF" p-id="13150"></path><path d="M658.2784 263.3216V69.4784H204.8v885.0432h629.0432v-691.2h-175.5648z m226.7648-25.6v768H153.6V18.2784h530.2784l201.1648 219.4432z m-92.928-25.6l-82.6368-90.112v90.112h82.6368z" fill="#cdcdcd" p-id="13151" data-spm-anchor-id="a313x.search_index.0.i16.290a3a81R5Sekj" class="selected"></path><path d="M230.4 768h98.1504l32.1024-105.0624h156.3648L549.12 768h98.0992L497.92 307.2H379.904L230.4 768z m263.424-181.1456H383.8976L437.248 412.5184h3.3792l53.248 174.336zM715.3664 479.3856v288h75.0592V479.3856h-75.0592zM753.0496 442.2656a39.4752 39.4752 0 0 1-28.672-11.776 39.4752 39.4752 0 0 1-11.8272-28.7232c0-11.008 3.8912-20.48 11.776-28.3136a39.168 39.168 0 0 1 28.7232-12.032c11.1616 0 20.6848 4.0448 28.5696 12.032a38.3488 38.3488 0 0 1 11.9808 28.3136 39.168 39.168 0 0 1-11.9808 28.672 38.912 38.912 0 0 1-28.5696 11.776z" fill="#cdcdcd" p-id="13152" data-spm-anchor-id="a313x.search_index.0.i15.290a3a81R5Sekj" class="selected"></path></svg>