<?xml version="1.0" standalone="no"?><!DOCTYPE svg PUBLIC "-//W3C//DTD SVG 1.1//EN" "http://www.w3.org/Graphics/SVG/1.1/DTD/svg11.dtd"><svg t="1769657039328" class="icon" viewBox="0 0 1024 1024" version="1.1" xmlns="http://www.w3.org/2000/svg" p-id="4878" xmlns:xlink="http://www.w3.org/1999/xlink" width="200" height="200"><path d="M511.333 127.333c51.868 0 102.15 10.144 149.451 30.15 45.719 19.337 86.792 47.034 122.078 82.321 35.287 35.286 62.983 76.359 82.321 122.078 20.006 47.3 30.15 97.583 30.15 149.451s-10.144 102.15-30.15 149.451c-19.337 45.719-47.034 86.792-82.321 122.078-35.286 35.287-76.359 62.983-122.078 82.321-47.3 20.006-97.583 30.15-149.451 30.15s-102.15-10.144-149.451-30.15c-45.719-19.337-86.792-47.034-122.078-82.321-35.287-35.286-62.983-76.359-82.321-122.078-20.006-47.3-30.15-97.583-30.15-149.451s10.144-102.15 30.15-149.451c19.337-45.719 47.034-86.792 82.321-122.078 35.286-35.287 76.359-62.983 122.078-82.321 47.301-20.006 97.583-30.15 149.451-30.15m0-64c-247.424 0-448 200.576-448 448s200.576 448 448 448 448-200.576 448-448-200.576-448-448-448z" fill="#bfbfbf" p-id="4879"></path><path d="M543.334 576h-64.001l-31.246-320.047h128.025z" fill="#bfbfbf" p-id="4880"></path><path d="M512.099 702.965m-40 0a40 40 0 1 0 80 0 40 40 0 1 0-80 0Z" fill="#bfbfbf" p-id="4881"></path></svg>