<?xml version="1.0" encoding="utf-8"?>
<svg version="1.1" xmlns:xlink="http://www.w3.org/1999/xlink" width="40px" height="50px" xmlns="http://www.w3.org/2000/svg">
  <defs>
    <filter x="1133px" y="322px" width="40px" height="50px" filterUnits="userSpaceOnUse" id="filter2">
      <feOffset dx="1" dy="1" in="SourceAlpha" result="shadowOffsetInner" />
      <feGaussianBlur stdDeviation="2.5" in="shadowOffsetInner" result="shadowGaussian" />
      <feComposite in2="shadowGaussian" operator="atop" in="SourceAlpha" result="shadowComposite" />
      <feColorMatrix type="matrix" values="0 0 0 0 0  0 0 0 0 0  0 0 0 0 0  0 0 0 0.698039215686274 0  " in="shadowComposite" />
    </filter>
    <g id="widget3">
      <path d="M 1152 365.036928468354  C 1146.2 355.40734059591  1137.5 349.629587872444  1137.5 340  C 1137.5 334.985714285714  1140.4 326.5  1152 326.5  C 1163.6 326.5  1166.5 334.985714285714  1166.5 340  C 1166.5 349.629587872444  1157.8 355.40734059591  1152 365.036928468354  Z " fill-rule="nonzero" fill="#009dd9" stroke="none" />
      <path d="M 1152 366  C 1146 356  1137 350  1137 340  C 1137 334.8  1140 326  1152 326  C 1164 326  1167 334.8  1167 340  C 1167 350  1158 356  1152 366  Z M 1152 364.073856936707  C 1157.6 354.81468119182  1166 349.259175744887  1166 340  C 1166 335.171428571429  1163.2 327  1152 327  C 1140.8 327  1138 335.171428571429  1138 340  C 1138 349.259175744887  1146.4 354.81468119182  1152 364.073856936707  Z " fill-rule="nonzero" fill="#ffffff" stroke="none" />
    </g>
  </defs>
  <g transform="matrix(1 0 0 1 -1133 -322 )">
    <use xlink:href="#widget3" filter="url(#filter2)" />
    <use xlink:href="#widget3" />
  </g>
</svg>